<svg width="56" height="36" viewBox="0 0 56 36" fill="none" xmlns="http://www.w3.org/2000/svg">
<g clip-path="url(#clip0_1_868)">
<path d="M3.92153 7.04872C5.9673 3.89473 8.9713 1.03098 12.4388 0.311234C15.9063 -0.428704 19.8374 0.975353 23.4432 3.04318C27.0488 5.111 30.289 7.86246 31.0037 11.1391C31.6984 14.4158 29.8276 18.2375 28.2179 21.9199C26.5881 25.6022 25.2195 29.1653 22.5411 31.3451C19.8627 33.5047 15.8546 34.2808 11.9367 33.745C7.99868 33.2293 4.15098 31.4019 2.11327 28.4177C0.0757251 25.4132 -0.151813 21.2519 0.298117 17.4594C0.748204 13.6466 1.87576 10.2027 3.92153 7.04872Z" fill="#9093D1"/>
</g>
<path d="M28.7227 30H26.042V17.1504H33.4072V19.3828H28.7227V22.6963H33.082V24.9199H28.7227V30ZM39.7354 19.9717C41.0537 19.9717 42.0645 20.2588 42.7676 20.833C43.4707 21.4072 43.8223 22.2803 43.8223 23.4521V30H41.9502L41.4316 28.6641H41.3613C41.0801 29.0156 40.793 29.3027 40.5 29.5254C40.207 29.748 39.8701 29.9121 39.4893 30.0176C39.1084 30.123 38.6455 30.1758 38.1006 30.1758C37.5205 30.1758 36.999 30.0645 36.5361 29.8418C36.0791 29.6191 35.7188 29.2793 35.4551 28.8223C35.1914 28.3594 35.0596 27.7734 35.0596 27.0645C35.0596 26.0215 35.4258 25.2539 36.1582 24.7617C36.8906 24.2637 37.9893 23.9883 39.4541 23.9355L41.1592 23.8828V23.4521C41.1592 22.9365 41.0244 22.5586 40.7549 22.3184C40.4854 22.0781 40.1104 21.958 39.6299 21.958C39.1553 21.958 38.6895 22.0254 38.2324 22.1602C37.7754 22.2949 37.3184 22.4648 36.8613 22.6699L35.9736 20.8594C36.4951 20.584 37.0781 20.3672 37.7227 20.209C38.373 20.0508 39.0439 19.9717 39.7354 19.9717ZM41.1592 25.4473L40.1221 25.4824C39.2549 25.5059 38.6514 25.6611 38.3115 25.9482C37.9775 26.2354 37.8105 26.6133 37.8105 27.082C37.8105 27.4922 37.9307 27.7852 38.1709 27.9609C38.4111 28.1309 38.7246 28.2158 39.1113 28.2158C39.6855 28.2158 40.1689 28.0459 40.5615 27.7061C40.96 27.3662 41.1592 26.8828 41.1592 26.2559V25.4473ZM52.4883 34.3242V30.2021C52.4883 29.9561 52.4971 29.71 52.5146 29.4639C52.5381 29.2119 52.5674 28.9658 52.6025 28.7256H52.4883C52.2363 29.1299 51.8877 29.4727 51.4424 29.7539C51.0029 30.0352 50.4229 30.1758 49.7021 30.1758C48.5947 30.1758 47.6982 29.748 47.0127 28.8926C46.333 28.0312 45.9932 26.7686 45.9932 25.1045C45.9932 23.9854 46.1514 23.0479 46.4678 22.292C46.7842 21.5303 47.2236 20.9561 47.7861 20.5693C48.3545 20.1826 49.0107 19.9893 49.7549 19.9893C50.4756 19.9893 51.0586 20.1299 51.5039 20.4111C51.9551 20.6865 52.3213 21.0264 52.6025 21.4307H52.6729L52.9102 20.1738H55.1777V34.3242H52.4883ZM50.6602 28.0752C51.1523 28.0752 51.542 27.9785 51.8291 27.7852C52.1221 27.5918 52.333 27.3018 52.4619 26.915C52.5908 26.5225 52.6611 26.0332 52.6729 25.4473V25.1221C52.6729 24.167 52.5264 23.4375 52.2334 22.9336C51.9404 22.4238 51.4014 22.1689 50.6162 22.1689C49.9775 22.1689 49.5029 22.4238 49.1924 22.9336C48.8818 23.4434 48.7266 24.1787 48.7266 25.1396C48.7266 26.1182 48.8848 26.8535 49.2012 27.3457C49.5176 27.832 50.0039 28.0752 50.6602 28.0752Z" fill="#222222"/>
<defs>
<clipPath id="clip0_1_868">
<rect width="32" height="34" fill="white"/>
</clipPath>
</defs>
</svg>
